<?xml version="1.0" standalone="no"?>
<!DOCTYPE svg PUBLIC "-//W3C//DTD SVG 20010904//EN"
 "http://www.w3.org/TR/2001/REC-SVG-20010904/DTD/svg10.dtd">
<svg version="1.0" xmlns="http://www.w3.org/2000/svg"
 width="1080.000000pt" height="1080.000000pt" viewBox="0 0 1080.000000 1080.000000"
 preserveAspectRatio="xMidYMid meet">

<g transform="translate(0.000000,1080.000000) scale(0.100000,-0.100000)"
fill="#000000" stroke="none">
<path d="M4870 9566 c-108 -30 -189 -99 -211 -178 -14 -53 0 -134 31 -178 29
-41 112 -78 203 -90 42 -5 111 -15 153 -20 113 -15 154 -47 154 -120 0 -43
-50 -95 -113 -116 -76 -26 -205 -23 -279 5 -32 12 -61 21 -65 20 -5 -1 -13
-20 -20 -42 -15 -49 -7 -57 82 -83 110 -32 274 -20 366 27 101 51 143 118 137
219 -7 132 -76 179 -301 204 -76 9 -153 22 -171 30 -105 44 -80 179 41 220 59
20 184 21 249 1 27 -8 50 -15 50 -15 1 0 5 16 8 36 4 19 10 42 12 49 15 37
-222 60 -326 31z"/>
<path d="M6383 9539 c-53 -15 -101 -71 -120 -140 -14 -52 -19 -60 -37 -56 -87
20 -83 22 -90 -24 -8 -48 -3 -54 56 -63 31 -5 38 -10 34 -24 -6 -20 -106 -460
-109 -481 -2 -17 94 -46 103 -31 3 5 30 116 59 247 29 131 57 242 61 246 4 4
37 1 74 -7 91 -22 94 -21 105 22 14 48 14 52 -3 52 -7 0 -46 7 -85 16 -81 18
-85 27 -51 101 13 29 27 44 45 49 35 9 94 -2 115 -21 24 -22 32 -19 57 20 l22
34 -26 20 c-29 24 -114 51 -152 50 -14 0 -41 -5 -58 -10z"/>
<path d="M5610 9401 c-79 -26 -157 -88 -190 -152 -11 -20 -24 -65 -30 -101
-14 -81 4 -166 50 -233 111 -161 380 -178 504 -33 143 167 93 414 -103 501
-50 22 -186 33 -231 18z m189 -111 c81 -41 117 -113 108 -218 -9 -122 -94
-197 -214 -190 -117 7 -193 91 -193 212 1 131 79 215 203 216 38 0 71 -7 96
-20z"/>
<path d="M6701 9290 c-12 -33 -26 -60 -32 -60 -5 0 -26 7 -46 15 -19 8 -37 15
-39 15 -5 0 -34 -70 -34 -81 0 -4 18 -14 41 -20 23 -7 43 -18 45 -24 3 -6 -23
-85 -56 -175 -72 -196 -77 -223 -56 -275 23 -54 43 -74 101 -101 53 -25 148
-33 160 -13 4 6 4 26 1 45 -7 33 -9 34 -51 34 -59 0 -105 37 -105 85 0 29 97
318 118 352 6 9 28 5 87 -17 44 -17 81 -30 82 -30 0 0 8 20 16 43 l15 44 -79
28 c-44 16 -79 35 -79 42 0 7 9 36 19 64 l20 51 -32 13 c-74 30 -72 31 -96
-35z"/>
<path d="M7016 8785 c-38 -173 -66 -320 -64 -327 3 -7 23 -23 45 -35 l40 -22
198 145 c108 80 199 144 200 142 2 -2 -19 -106 -46 -233 -27 -126 -49 -235
-49 -242 0 -7 20 -24 44 -38 l45 -26 260 196 c144 107 261 197 261 199 0 6
-70 46 -81 46 -5 0 -100 -68 -210 -151 -110 -83 -202 -149 -204 -147 -2 2 21
113 51 248 29 135 54 248 54 252 0 11 -73 49 -86 44 -7 -3 -102 -71 -210 -151
-108 -80 -198 -145 -199 -143 -2 2 21 113 52 247 30 134 52 248 50 255 -3 6
-22 21 -44 33 l-39 22 -68 -314z"/>
<path d="M3578 8878 c-41 -38 -69 -88 -77 -138 l-6 -35 -23 38 c-13 20 -28 37
-33 37 -14 0 -79 -44 -79 -53 0 -6 311 -489 326 -506 5 -6 73 31 86 46 7 9
-15 51 -82 153 -93 140 -119 193 -119 240 -1 40 34 104 74 137 l37 31 -24 41
c-12 22 -28 41 -34 41 -5 0 -26 -15 -46 -32z"/>
<path d="M4283 8710 c-47 -19 -58 -92 -20 -128 50 -47 127 -15 127 52 0 59
-54 98 -107 76z"/>
<path d="M3084 8489 c-49 -14 -125 -69 -161 -117 -117 -154 -57 -380 126 -469
46 -23 69 -28 131 -28 95 0 165 32 237 108 60 63 89 115 98 178 l7 46 -39 6
c-60 10 -63 9 -63 -23 0 -64 -65 -152 -143 -191 -50 -26 -149 -23 -192 5 l-28
18 114 106 c63 59 146 137 184 175 l70 68 -48 44 c-79 72 -196 102 -293 74z
m166 -110 l45 -21 -140 -134 c-77 -73 -145 -134 -151 -134 -15 0 -44 72 -44
111 0 66 61 156 125 185 44 19 114 17 165 -7z"/>
<path d="M7981 8339 c-15 -43 -14 -59 4 -59 19 0 89 -35 128 -64 43 -31 87
-104 87 -143 0 -38 -19 -80 -47 -105 -18 -17 -23 -14 -113 78 -106 109 -148
134 -218 134 -121 0 -197 -127 -147 -246 38 -91 142 -174 219 -174 l40 0 -29
-30 -29 -30 34 -35 c19 -19 38 -34 42 -33 4 2 74 65 156 141 99 91 158 154
176 186 53 99 24 204 -84 304 -61 57 -148 107 -186 107 -16 0 -25 -9 -33 -31z
m-82 -274 c15 -7 60 -49 100 -91 l72 -77 -32 -33 c-51 -52 -120 -53 -195 -2
-41 28 -84 94 -84 129 0 15 12 41 26 58 29 35 67 40 113 16z"/>
<path d="M2647 7970 c-93 -23 -176 -91 -219 -178 -17 -36 -23 -64 -23 -118 l0
-72 -25 17 c-14 10 -30 21 -37 25 -7 4 -23 -11 -42 -37 l-30 -44 346 -238 346
-238 24 29 c49 60 53 54 -87 150 l-130 89 46 12 c146 37 246 217 205 368 -41
153 -229 270 -374 235z m161 -141 c75 -42 112 -103 112 -181 0 -121 -84 -208
-200 -208 -62 0 -104 17 -155 61 -94 83 -99 206 -12 298 67 70 165 82 255 30z"/>
<path d="M8283 7671 l-252 -167 30 -46 31 -47 56 36 c31 20 89 57 127 83 105
70 148 90 200 90 57 0 93 -18 137 -69 l34 -40 42 27 c23 15 42 30 42 34 0 4
-14 23 -32 43 -34 39 -84 68 -136 80 l-34 7 36 24 c20 14 36 28 36 32 0 12
-50 82 -58 81 -4 0 -120 -76 -259 -168z"/>
<path d="M8533 7340 c-63 -26 -147 -98 -175 -154 -31 -60 -36 -174 -9 -248 35
-100 102 -180 173 -207 26 -10 29 -8 48 29 11 22 20 41 20 43 0 3 -14 10 -30
17 -42 17 -96 82 -114 138 -21 60 -20 118 3 167 22 48 67 93 80 79 5 -5 51
-106 102 -224 51 -118 94 -217 96 -219 2 -3 26 6 54 19 69 33 144 116 164 182
20 68 19 103 -5 181 -23 76 -88 155 -154 189 -60 31 -184 35 -253 8z m241
-117 c76 -54 108 -171 68 -249 -25 -49 -69 -91 -82 -78 -5 5 -42 86 -83 181
-84 191 -84 185 8 178 33 -3 63 -14 89 -32z"/>
<path d="M2242 7275 c-129 -40 -221 -171 -222 -316 0 -129 58 -222 176 -280
85 -42 180 -45 262 -10 111 49 192 178 192 305 0 93 -24 151 -89 216 -87 87
-210 119 -319 85z m200 -132 c70 -38 101 -88 106 -167 12 -217 -257 -300 -394
-121 -55 73 -41 195 30 264 69 67 163 76 258 24z"/>
<path d="M1646 6638 c-2 -7 -9 -32 -14 -55 l-10 -42 47 -10 c25 -6 208 -49
405 -96 198 -47 367 -85 376 -85 12 0 20 14 28 48 6 26 8 50 4 53 -4 3 -185
47 -402 98 -217 51 -403 94 -413 97 -9 3 -19 -1 -21 -8z"/>
<path d="M8958 6326 c-207 -23 -379 -44 -382 -46 -2 -3 9 -135 26 -293 l31
-287 49 0 48 0 -1 38 c0 20 -10 127 -23 237 -15 134 -19 201 -12 202 6 2 64 9
129 16 84 10 120 10 122 3 2 -6 11 -81 20 -166 8 -85 18 -172 21 -193 l6 -39
47 7 c25 4 47 8 47 8 1 1 -6 76 -17 167 -10 91 -18 181 -19 201 l0 37 116 12
c66 7 119 9 123 4 5 -5 14 -63 20 -129 7 -66 17 -164 23 -217 l11 -98 36 0
c68 0 66 -9 37 271 -33 317 -32 309 -59 308 -12 -1 -192 -20 -399 -43z"/>
<path d="M1954 6241 c-110 -52 -167 -149 -166 -282 0 -116 59 -210 167 -267
44 -24 61 -27 145 -27 81 0 102 4 143 25 93 47 150 133 168 252 10 62 9 83 -5
138 -17 64 -52 130 -70 130 -5 0 -24 -12 -43 -26 -32 -25 -33 -27 -18 -44 41
-45 54 -134 33 -218 -15 -61 -89 -138 -142 -148 -20 -3 -39 -4 -41 -2 -3 3 4
110 15 238 11 128 20 239 20 246 0 11 -18 14 -72 14 -60 0 -84 -5 -134 -29z
m116 -93 c-1 -50 -30 -361 -34 -366 -10 -9 -55 9 -87 35 -113 95 -80 289 58
338 53 20 63 18 63 -7z"/>
<path d="M8626 5569 c-16 -79 -26 -73 176 -98 264 -31 303 -57 303 -206 0 -97
-15 -127 -80 -159 -39 -20 -42 -20 -200 -2 -88 10 -181 21 -206 23 l-46 5 -6
-53 c-4 -29 -5 -54 -4 -55 5 -5 360 -44 404 -44 152 0 243 100 243 269 0 55
-5 79 -28 125 l-29 56 37 0 c40 0 50 14 50 72 0 23 -5 28 -32 33 -51 8 -530
65 -554 65 -16 0 -23 -8 -28 -31z"/>
<path d="M1770 5546 c0 -23 6 -49 13 -58 6 -8 121 -48 255 -89 133 -40 242
-76 242 -80 0 -4 -101 -64 -225 -135 l-225 -128 1 -40 c1 -86 -11 -89 302 92
l289 167 -6 54 c-4 30 -9 57 -11 59 -2 3 -146 48 -320 102 l-315 97 0 -41z"/>
<path d="M2351 4934 c-12 -19 -21 -38 -21 -41 0 -3 20 -23 44 -45 77 -67 106
-187 67 -273 -16 -36 -88 -112 -97 -102 -2 2 -37 108 -78 236 -40 128 -76 235
-79 238 -12 11 -135 -55 -172 -92 -57 -57 -80 -116 -80 -205 0 -65 4 -84 33
-142 37 -75 73 -110 151 -146 46 -21 64 -24 135 -20 71 4 91 9 147 39 76 42
122 98 145 176 41 140 -28 328 -144 395 l-30 18 -21 -36z m-148 -293 c31 -98
57 -183 57 -190 0 -29 -114 -3 -161 36 -62 52 -87 160 -55 236 12 30 77 97 95
97 4 0 33 -80 64 -179z"/>
<path d="M8336 4917 c-80 -83 -147 -238 -146 -342 1 -88 50 -168 133 -215 40
-23 239 -98 574 -217 12 -5 43 56 43 83 0 7 -16 18 -35 25 -43 16 -44 23 -5
39 40 17 97 81 122 138 29 65 35 176 14 239 -33 98 -128 175 -241 193 -103 17
-219 -33 -279 -118 -62 -90 -83 -211 -51 -289 8 -20 14 -38 12 -39 -2 -2 -30
9 -63 25 -107 50 -138 115 -109 224 20 78 56 137 115 190 l49 44 -30 36 c-17
21 -35 37 -41 37 -5 0 -33 -24 -62 -53z m499 -186 c106 -48 144 -176 86 -288
-39 -77 -97 -113 -179 -113 -144 1 -235 133 -187 271 45 126 165 183 280 130z"/>
<path d="M2359 4247 c-115 -48 -185 -110 -235 -209 -23 -43 -28 -70 -32 -143
-6 -124 15 -180 145 -392 101 -167 105 -172 127 -160 13 6 170 102 349 212
l326 199 -22 36 c-202 332 -248 389 -356 443 -57 28 -77 32 -156 35 -76 2 -99
-1 -146 -21z m269 -116 c65 -33 119 -94 194 -216 51 -84 64 -113 55 -121 -20
-19 -494 -304 -504 -304 -13 0 -139 208 -159 262 -21 57 -21 163 0 211 34 83
105 147 204 184 53 19 157 11 210 -16z"/>
<path d="M8219 4166 c-13 -25 -21 -47 -19 -49 12 -10 532 -298 534 -295 1 2
14 23 28 48 l26 46 -263 147 c-145 81 -268 147 -273 147 -5 0 -20 -20 -33 -44z"/>
<path d="M8091 3941 c-17 -21 -31 -42 -31 -45 0 -3 65 -58 145 -121 156 -124
185 -161 185 -235 0 -94 -85 -190 -167 -190 -59 0 -83 14 -249 146 l-143 113
-35 -42 c-27 -33 -32 -45 -23 -54 44 -43 300 -237 336 -255 71 -34 135 -35
201 -1 102 52 182 189 165 280 l-6 35 36 -28 37 -28 33 40 c26 30 31 42 22 50
-16 16 -449 358 -464 367 -7 4 -24 -9 -42 -32z"/>
<path d="M8884 3827 c-54 -46 -24 -127 46 -127 63 0 93 91 44 129 -34 27 -57
26 -90 -2z"/>
<path d="M3233 3352 c-176 -63 -272 -270 -199 -429 48 -103 145 -172 254 -182
l63 -6 -101 -124 c-55 -68 -100 -127 -100 -131 0 -8 80 -74 84 -69 1 2 119
148 261 324 142 176 262 326 268 333 8 11 1 22 -29 48 l-39 33 -32 -37 -33
-37 0 30 c0 17 -11 53 -24 81 -65 139 -236 215 -373 166z m193 -116 c108 -50
152 -174 99 -276 -74 -143 -237 -176 -344 -69 -67 67 -79 149 -35 238 58 115
170 158 280 107z"/>
<path d="M7583 3335 c-129 -40 -252 -172 -253 -271 0 -27 4 -32 31 -38 51 -10
54 -8 67 39 15 55 77 126 136 155 56 26 134 27 186 0 22 -11 40 -24 40 -29 0
-5 -85 -78 -189 -162 -105 -85 -190 -157 -190 -161 -1 -3 19 -27 44 -51 121
-122 293 -130 415 -20 76 69 103 120 108 213 4 68 1 84 -23 139 -68 151 -228
231 -372 186z m282 -245 c32 -62 10 -165 -47 -216 -64 -59 -162 -72 -232 -31
-21 12 -39 26 -38 30 1 8 289 247 297 247 3 0 11 -13 20 -30z"/>
<path d="M3864 2950 c-31 -10 -31 -10 -21 -54 l10 -43 63 5 c58 4 71 1 130
-28 51 -25 72 -42 95 -78 33 -53 44 -98 35 -147 l-7 -35 -219 110 c-121 61
-224 110 -229 110 -5 0 -19 -24 -32 -52 -34 -77 -32 -185 3 -253 70 -133 228
-203 370 -161 76 22 147 87 190 173 81 166 12 341 -168 425 -71 33 -165 45
-220 28z m97 -366 l171 -85 -28 -31 c-63 -66 -155 -77 -241 -28 -53 30 -82 70
-97 133 -8 33 2 97 15 97 5 0 86 -39 180 -86z"/>
<path d="M6959 2937 c-96 -40 -164 -101 -194 -174 -19 -46 -21 -42 20 -59 47
-19 51 -18 65 16 17 42 88 104 143 125 67 25 145 17 199 -21 23 -16 43 -34 45
-40 2 -6 -94 -62 -214 -124 -120 -62 -219 -114 -221 -115 -9 -8 44 -90 79
-124 92 -90 218 -111 333 -56 121 57 180 148 181 275 0 86 -28 158 -85 223
-58 67 -111 91 -209 94 -73 3 -95 0 -142 -20z m329 -303 c3 -73 -17 -116 -75
-161 -78 -59 -179 -54 -251 11 l-35 33 84 45 c189 102 254 135 264 133 6 -1
11 -28 13 -61z"/>
<path d="M6526 2746 c-22 -7 -41 -17 -43 -22 -2 -6 19 -81 47 -167 53 -168 62
-236 35 -286 -19 -37 -66 -76 -109 -91 l-34 -11 16 -49 c9 -28 21 -50 26 -50
6 0 34 14 63 30 51 29 85 66 101 111 8 22 10 21 22 -16 7 -22 14 -43 16 -47 3
-5 88 17 101 26 6 5 -184 580 -192 582 -6 1 -28 -4 -49 -10z"/>
<path d="M4422 2303 c-112 -206 -201 -377 -199 -379 2 -3 27 -5 56 -7 l52 -2
162 297 c89 164 164 298 167 298 3 0 29 -151 57 -336 28 -185 55 -340 60 -344
4 -4 28 -11 53 -14 l46 -7 169 306 c94 168 171 299 173 291 2 -8 25 -161 51
-341 27 -179 51 -328 53 -330 5 -6 110 -26 113 -23 7 10 -126 843 -136 849
-12 7 -109 22 -114 17 -2 -2 -73 -131 -160 -288 -155 -283 -175 -316 -175
-291 0 18 -100 655 -104 658 -3 3 -105 23 -115 23 -3 -1 -97 -170 -209 -377z"/>
<path d="M5815 2575 c-16 -15 -25 -36 -25 -55 0 -38 39 -80 74 -80 39 0 79 41
79 80 0 24 -7 40 -27 57 -35 30 -71 29 -101 -2z"/>
</g>
</svg>
